<svg width="16" height="16" viewBox="0 0 16 16" fill="none" xmlns="http://www.w3.org/2000/svg">
<g clip-path="url(#clip0_1_131)">
<path fill-rule="evenodd" clip-rule="evenodd" d="M10.2798 1.46199C5.55809 1.46199 1.72972 4.38888 1.72972 7.99963C1.72972 11.6104 5.55809 14.5373 10.2798 14.5373C12.4832 14.5371 14.2695 13.1714 14.2695 11.4864C14.2695 9.80153 12.4832 8.43574 10.2798 8.4356C9.96506 8.4356 9.70911 8.24035 9.70911 7.99963C9.70911 7.75891 9.96506 7.56367 10.2798 7.56367L10.4852 7.56005C12.5931 7.47821 14.2695 6.14508 14.2695 4.51283C14.2695 2.8279 12.4832 1.46214 10.2798 1.46199ZM13.129 4.51283C13.129 3.30934 11.8536 2.33407 10.2798 2.33392C6.18766 2.33392 2.87028 4.87031 2.87028 7.99963C2.87028 11.129 6.18766 13.6653 10.2798 13.6653C11.8536 13.6652 13.129 12.6899 13.129 11.4864C13.1289 10.283 11.8536 9.30767 10.2798 9.30752C9.33549 9.30752 8.56946 8.72178 8.56946 7.99963C8.56946 7.27748 9.3355 6.69174 10.2798 6.69174C11.8536 6.6916 13.1289 5.7163 13.129 4.51283Z" fill="white"/>
<path fill-rule="evenodd" clip-rule="evenodd" d="M10.2798 3.20494C6.81722 3.20494 4.00994 5.35174 4.00994 7.99963C4.00994 10.6475 6.81722 12.7943 10.2798 12.7943C11.224 12.7942 11.9893 12.2085 11.9893 11.4864C11.9893 10.7644 11.224 10.1787 10.2798 10.1785C8.70593 10.1785 7.42981 9.20322 7.42981 7.99963C7.42981 6.79605 8.70593 5.82072 10.2798 5.82072C11.224 5.82057 11.9893 5.23487 11.9893 4.51283C11.9893 3.79077 11.224 3.20509 10.2798 3.20494ZM10.8497 4.51283C10.8497 4.2722 10.5945 4.07701 10.2798 4.07687C7.44679 4.07687 5.14959 5.83318 5.14959 7.99963C5.14959 10.1661 7.44679 11.9224 10.2798 11.9224C10.5945 11.9223 10.8497 11.7271 10.8497 11.4864C10.8496 11.2458 10.5944 11.0506 10.2798 11.0505C8.07636 11.0505 6.29015 9.68465 6.29015 7.99963C6.29015 6.31461 8.07636 4.94879 10.2798 4.94879C10.5944 4.94865 10.8496 4.75344 10.8497 4.51283Z" fill="white"/>
<path d="M10.2798 4.07687C10.5945 4.07701 10.8497 4.2722 10.8497 4.51283C10.8496 4.75344 10.5944 4.94865 10.2798 4.94879C8.07636 4.94879 6.29015 6.31461 6.29015 7.99963C6.29015 9.68465 8.07636 11.0505 10.2798 11.0505C10.5944 11.0506 10.8496 11.2458 10.8497 11.4864C10.8497 11.7271 10.5945 11.9223 10.2798 11.9224C7.44679 11.9224 5.14959 10.1661 5.14959 7.99963C5.14959 5.83318 7.44679 4.07687 10.2798 4.07687Z" fill="white"/>
<path fill-rule="evenodd" clip-rule="evenodd" d="M10.2798 0.590065C13.1127 0.590209 15.4092 2.34647 15.4092 4.51283C15.4092 6.03216 14.279 7.34808 12.627 7.99963C14.279 8.65119 15.4092 9.9671 15.4092 11.4864C15.4092 13.6528 13.1127 15.4091 10.2798 15.4092L9.78057 15.3992C4.66112 15.2007 0.590065 11.9639 0.590065 7.99963C0.590065 3.90744 4.92852 0.590065 10.2798 0.590065ZM1.72972 7.99963C1.72972 4.38888 5.55809 1.46199 10.2798 1.46199C12.4832 1.46214 14.2695 2.8279 14.2695 4.51283C14.2695 6.14508 12.5931 7.47821 10.4852 7.56005L10.2798 7.56367C9.96506 7.56367 9.70911 7.75891 9.70911 7.99963C9.70911 8.24035 9.96506 8.4356 10.2798 8.4356C12.4832 8.43574 14.2695 9.80153 14.2695 11.4864C14.2695 13.1714 12.4832 14.5371 10.2798 14.5373C5.55809 14.5373 1.72972 11.6104 1.72972 7.99963Z" fill="white"/>
<path d="M15.4092 4.51283C15.4092 2.41404 13.2538 0.699879 10.5433 0.594871L10.2798 0.590065C4.92852 0.590065 0.590065 3.90744 0.590065 7.99963C0.590065 11.9639 4.66112 15.2007 9.78057 15.3992L10.2798 15.4092C13.1127 15.4091 15.4092 13.6528 15.4092 11.4864C15.4092 9.9671 14.279 8.65119 12.627 7.99963C14.1756 7.38883 15.2661 6.19423 15.3965 4.79548L15.4092 4.51283ZM11.9893 4.51283C11.9893 3.83597 11.3169 3.27893 10.4549 3.21172L10.2798 3.20494C6.81722 3.20494 4.00994 5.35174 4.00994 7.99963L4.01802 8.2465C4.18063 10.6979 6.75138 12.664 9.95711 12.7883L10.2798 12.7943C11.1651 12.7941 11.8928 12.2791 11.9801 11.6197L11.9893 11.4864C11.9891 10.8097 11.3167 10.2521 10.4549 10.1849L10.2798 10.1785C8.70593 10.1785 7.42981 9.20322 7.42981 7.99963C7.42988 6.87124 8.55165 5.94386 9.98883 5.83242L10.2798 5.82072C11.1649 5.82052 11.8925 5.30573 11.9801 4.64653L11.9893 4.51283ZM13.1141 4.7359C12.968 5.83449 11.755 6.69154 10.2798 6.69174L10.1051 6.6983C9.24282 6.76525 8.56953 7.32264 8.56946 7.99963C8.56946 8.72178 9.33549 9.30752 10.2798 9.30752C11.8536 9.30767 13.1289 10.283 13.129 11.4864L13.1141 11.7091C12.9683 12.8079 11.7552 13.6651 10.2798 13.6653L9.89849 13.658C6.11002 13.5111 3.07252 11.1887 2.88017 8.29167L2.87028 7.99963C2.87028 4.87031 6.18766 2.33392 10.2798 2.33392L10.5712 2.34489C12.0081 2.45656 13.129 3.38455 13.129 4.51283L13.1141 4.7359ZM16 4.51294C15.9999 5.96469 15.1501 7.1958 13.9088 7.99952C15.1501 8.8032 15.9998 10.0344 16 11.4861C16 12.7919 15.3059 13.9338 14.2654 14.7295C13.2254 15.5247 11.8144 15.9999 10.28 16H10.2685L9.76875 15.9894H9.75722C4.47061 15.7842 0 12.4117 0 7.99952C4.00155e-05 5.73084 1.20367 3.7178 3.06949 2.29107C4.9348 0.864749 7.48626 0 10.28 0C11.8145 0.000106693 13.2254 0.47513 14.2654 1.27047C15.3059 2.06624 16 3.20719 16 4.51294Z" fill="black"/>
</g>
<defs>
<clipPath id="clip0_1_131">
<rect width="16" height="16" fill="white"/>
</clipPath>
</defs>
</svg>
